<svg width="24" height="24" viewBox="0 0 24 24" fill="none" xmlns="http://www.w3.org/2000/svg">
<g id="icon / jam-icons / outline &#38; logos / branch">
<path id="Vector" d="M7 20C7.26522 20 7.51957 19.8946 7.70711 19.7071C7.89464 19.5196 8 19.2652 8 19C8 18.7348 7.89464 18.4804 7.70711 18.2929C7.51957 18.1053 7.26522 18 7 18C6.73478 18 6.48043 18.1053 6.29289 18.2929C6.10536 18.4804 6 18.7348 6 19C6 19.2652 6.10536 19.5196 6.29289 19.7071C6.48043 19.8946 6.73478 20 7 20ZM8 12.998V16.171C8.66749 16.4069 9.23009 16.8712 9.58836 17.4818C9.94662 18.0924 10.0775 18.81 9.95781 19.5078C9.83814 20.2055 9.47563 20.8385 8.93437 21.2949C8.39311 21.7512 7.70795 22.0015 7 22.0015C6.29205 22.0015 5.60689 21.7512 5.06563 21.2949C4.52437 20.8385 4.16186 20.2055 4.04219 19.5078C3.92251 18.81 4.05337 18.0924 4.41164 17.4818C4.76991 16.8712 5.33251 16.4069 6 16.171V7.82899C5.33251 7.59309 4.76991 7.1288 4.41164 6.51819C4.05337 5.90758 3.92251 5.18997 4.04219 4.4922C4.16186 3.79444 4.52437 3.16145 5.06563 2.70512C5.60689 2.24879 6.29205 1.9985 7 1.9985C7.70795 1.9985 8.39311 2.24879 8.93437 2.70512C9.47563 3.16145 9.83814 3.79444 9.95781 4.4922C10.0775 5.18997 9.94662 5.90758 9.58836 6.51819C9.23009 7.1288 8.66749 7.59309 8 7.82899V10.169C8.312 10.059 8.647 9.99899 8.997 9.99799L15.034 9.99199C15.299 9.99173 15.5531 9.88625 15.7405 9.69875C15.9278 9.51124 16.033 9.25704 16.033 8.99199V7.83999C15.3614 7.60989 14.7931 7.14912 14.4291 6.53957C14.0651 5.93002 13.929 5.21117 14.045 4.51075C14.1609 3.81033 14.5215 3.17371 15.0625 2.71402C15.6036 2.25432 16.29 2.00133 17 1.99999C17.7049 1.9997 18.3874 2.24763 18.9277 2.70028C19.4681 3.15294 19.8318 3.78141 19.955 4.47545C20.0783 5.16949 19.9532 5.88476 19.6017 6.49579C19.2503 7.10681 18.6949 7.57457 18.033 7.81699V8.99199C18.033 9.78712 17.7173 10.5497 17.1554 11.1123C16.5934 11.6748 15.8311 11.9912 15.036 11.992L8.999 11.998C8.73396 11.9983 8.47986 12.1037 8.29254 12.2912C8.10522 12.4787 8 12.7329 8 12.998ZM7 5.99999C7.26522 5.99999 7.51957 5.89464 7.70711 5.7071C7.89464 5.51956 8 5.26521 8 4.99999C8 4.73478 7.89464 4.48042 7.70711 4.29289C7.51957 4.10535 7.26522 3.99999 7 3.99999C6.73478 3.99999 6.48043 4.10535 6.29289 4.29289C6.10536 4.48042 6 4.73478 6 4.99999C6 5.26521 6.10536 5.51956 6.29289 5.7071C6.48043 5.89464 6.73478 5.99999 7 5.99999ZM17 5.99999C17.2652 5.99999 17.5196 5.89464 17.7071 5.7071C17.8946 5.51956 18 5.26521 18 4.99999C18 4.73478 17.8946 4.48042 17.7071 4.29289C17.5196 4.10535 17.2652 3.99999 17 3.99999C16.7348 3.99999 16.4804 4.10535 16.2929 4.29289C16.1054 4.48042 16 4.73478 16 4.99999C16 5.26521 16.1054 5.51956 16.2929 5.7071C16.4804 5.89464 16.7348 5.99999 17 5.99999Z" fill="#475569"/>
</g>
</svg>
