<svg width="24" height="25" viewBox="0 0 24 25" fill="none" xmlns="http://www.w3.org/2000/svg">
<g id="icon / jam-icons / outline &#38; logos / search">
<path id="Vector" d="M10.5 17C11.2879 17 12.0682 16.8448 12.7961 16.5433C13.5241 16.2418 14.1855 15.7998 14.7427 15.2427C15.2998 14.6855 15.7418 14.0241 16.0433 13.2961C16.3448 12.5682 16.5 11.7879 16.5 11C16.5 10.2121 16.3448 9.43187 16.0433 8.70391C15.7418 7.97596 15.2998 7.31453 14.7427 6.75737C14.1855 6.20022 13.5241 5.75827 12.7961 5.45674C12.0682 5.15521 11.2879 5.00002 10.5 5.00002C8.90872 5.00002 7.38259 5.63216 6.25737 6.75737C5.13216 7.88259 4.50002 9.40872 4.50002 11C4.50002 12.5913 5.13216 14.1174 6.25737 15.2427C7.38259 16.3679 8.90872 17 10.5 17ZM16.82 15.906L20.4 19.486C20.4955 19.5783 20.5716 19.6887 20.6239 19.8108C20.6762 19.9328 20.7037 20.064 20.7048 20.1968C20.7058 20.3296 20.6804 20.4613 20.63 20.5841C20.5797 20.707 20.5053 20.8186 20.4114 20.9124C20.3174 21.0062 20.2057 21.0804 20.0828 21.1306C19.9599 21.1808 19.8282 21.206 19.6954 21.2048C19.5626 21.2035 19.4314 21.1758 19.3095 21.1233C19.1875 21.0708 19.0772 20.9946 18.985 20.899L15.405 17.319C13.7975 18.5669 11.7748 19.1552 9.74877 18.9642C7.72273 18.7732 5.84562 17.8173 4.49957 16.2911C3.15351 14.7648 2.4397 12.783 2.50344 10.7489C2.56718 8.71492 3.40368 6.78164 4.84266 5.34266C6.28164 3.90368 8.21492 3.06718 10.2489 3.00344C12.283 2.9397 14.2648 3.65351 15.7911 4.99957C17.3173 6.34562 18.2732 8.22273 18.4642 10.2488C18.6552 12.2748 18.0669 14.2975 16.819 15.905L16.82 15.906Z" fill="#94A3B8"/>
</g>
</svg>
